<!-- Generator: Adobe Illustrator 19.2.1, SVG Export Plug-In  -->
<svg version="1.1"
	 xmlns="http://www.w3.org/2000/svg" xmlns:xlink="http://www.w3.org/1999/xlink" xmlns:a="http://ns.adobe.com/AdobeSVGViewerExtensions/3.0/"
	 x="0px" y="0px" width="119px" height="90px" viewBox="0 0 119 90" style="enable-background:new 0 0 119 90;"
	 xml:space="preserve">
<style type="text/css">
	.st0{fill:#002147;}
	.st1{fill:#BBBBBB;}
	.st2{fill:#FFFFFF;}
</style>
<defs>
</defs>
<g>
	<g>
		<rect class="st0" width="119" height="90"/>
	</g>
	<g>
		<g>
			<path class="st1" d="M15.7,11.4c1.4,1.4,2.1,3.3,2.1,6c0,2.5-0.6,4.6-1.8,6.3c-1.2,1.7-3.1,2.5-5.7,2.5c-2.2,0-3.9-0.7-5.1-2.2
				c-1.3-1.5-1.9-3.4-1.9-5.9c0-2.6,0.7-4.8,2-6.3c1.3-1.6,3.1-2.4,5.4-2.4C12.6,9.3,14.3,10,15.7,11.4z M14.1,21.8
				c0.6-1.3,1-2.8,1-4.4c0-1.5-0.2-2.7-0.7-3.6c-0.7-1.4-2-2.2-3.8-2.2c-1.6,0-2.8,0.6-3.5,1.9c-0.7,1.2-1.1,2.7-1.1,4.5
				c0,1.7,0.4,3.1,1.1,4.2c0.7,1.1,1.9,1.7,3.5,1.7C12.2,23.8,13.4,23.2,14.1,21.8z"/>
			<path class="st1" d="M24.1,4h2.6v3h-2.6V4z M24.1,9.9h2.6v15.7h-2.6V9.9z"/>
			<path class="st1" d="M33.8,4h2.6v3h-2.6V4z M33.8,9.9h2.6v15.7h-2.6V9.9z"/>
			<path class="st1" d="M54.9,11.4c1.4,1.4,2.1,3.3,2.1,6c0,2.5-0.6,4.6-1.8,6.3c-1.2,1.7-3.1,2.5-5.7,2.5c-2.2,0-3.9-0.7-5.1-2.2
				c-1.3-1.5-1.9-3.4-1.9-5.9c0-2.6,0.7-4.8,2-6.3c1.3-1.6,3.1-2.4,5.4-2.4C51.8,9.3,53.6,10,54.9,11.4z M53.3,21.8
				c0.6-1.3,1-2.8,1-4.4c0-1.5-0.2-2.7-0.7-3.6c-0.7-1.4-2-2.2-3.8-2.2c-1.6,0-2.8,0.6-3.5,1.9c-0.7,1.2-1.1,2.7-1.1,4.5
				c0,1.7,0.4,3.1,1.1,4.2c0.7,1.1,1.9,1.7,3.5,1.7C51.5,23.8,52.7,23.2,53.3,21.8z"/>
			<path class="st1" d="M63.4,4H66v3h-2.6V4z M63.4,9.9H66v15.7h-2.6V9.9z"/>
			<path class="st1" d="M73.1,4h2.6v3h-2.6V4z M73.1,9.9h2.6v15.7h-2.6V9.9z"/>
			<path class="st1" d="M94.2,11.4c1.4,1.4,2.1,3.3,2.1,6c0,2.5-0.6,4.6-1.8,6.3c-1.2,1.7-3.1,2.5-5.7,2.5c-2.2,0-3.9-0.7-5.1-2.2
				c-1.3-1.5-1.9-3.4-1.9-5.9c0-2.6,0.7-4.8,2-6.3c1.3-1.6,3.1-2.4,5.4-2.4C91.1,9.3,92.8,10,94.2,11.4z M92.6,21.8
				c0.6-1.3,1-2.8,1-4.4c0-1.5-0.2-2.7-0.7-3.6c-0.7-1.4-2-2.2-3.8-2.2c-1.6,0-2.8,0.6-3.5,1.9c-0.7,1.2-1.1,2.7-1.1,4.5
				c0,1.7,0.4,3.1,1.1,4.2c0.7,1.1,1.9,1.7,3.5,1.7C90.7,23.8,91.9,23.2,92.6,21.8z"/>
			<path class="st1" d="M102.6,4h2.6v3h-2.6V4z M102.6,9.9h2.6v15.7h-2.6V9.9z"/>
			<path class="st1" d="M112.3,7h2.6V4h-2.6V7z M112.3,25.6h2.6V9.9h-2.6V25.6z"/>
			<path class="st1" d="M15.7,41.5c1.4,1.4,2.1,3.3,2.1,6c0,2.5-0.6,4.6-1.8,6.3c-1.2,1.7-3.1,2.5-5.7,2.5c-2.2,0-3.9-0.7-5.1-2.2
				c-1.3-1.5-1.9-3.4-1.9-5.9c0-2.6,0.7-4.8,2-6.3c1.3-1.6,3.1-2.4,5.4-2.4C12.6,39.5,14.3,40.2,15.7,41.5z M14.1,52
				c0.6-1.3,1-2.8,1-4.4c0-1.5-0.2-2.7-0.7-3.6c-0.7-1.4-2-2.2-3.8-2.2c-1.6,0-2.8,0.6-3.5,1.9c-0.7,1.2-1.1,2.7-1.1,4.5
				c0,1.7,0.4,3.1,1.1,4.2c0.7,1.1,1.9,1.7,3.5,1.7C12.2,54,13.4,53.3,14.1,52z"/>
			<path class="st1" d="M24.1,34.1h2.6v3h-2.6V34.1z M24.1,40h2.6v15.7h-2.6V40z"/>
			<path class="st1" d="M33.8,34.1h2.6v3h-2.6V34.1z M33.8,40h2.6v15.7h-2.6V40z"/>
			<path class="st1" d="M94.2,41.5c1.4,1.4,2.1,3.3,2.1,6c0,2.5-0.6,4.6-1.8,6.3c-1.2,1.7-3.1,2.5-5.7,2.5c-2.2,0-3.9-0.7-5.1-2.2
				c-1.3-1.5-1.9-3.4-1.9-5.9c0-2.6,0.7-4.8,2-6.3c1.3-1.6,3.1-2.4,5.4-2.4C91.1,39.5,92.8,40.2,94.2,41.5z M92.6,52
				c0.6-1.3,1-2.8,1-4.4c0-1.5-0.2-2.7-0.7-3.6c-0.7-1.4-2-2.2-3.8-2.2c-1.6,0-2.8,0.6-3.5,1.9c-0.7,1.2-1.1,2.7-1.1,4.5
				c0,1.7,0.4,3.1,1.1,4.2c0.7,1.1,1.9,1.7,3.5,1.7C90.7,54,91.9,53.3,92.6,52z"/>
			<path class="st1" d="M102.6,34.1h2.6v3h-2.6V34.1z M102.6,40h2.6v15.7h-2.6V40z"/>
			<path class="st1" d="M112.3,34.1h2.6v3h-2.6V34.1z M112.3,40h2.6v15.7h-2.6V40z"/>
			<path class="st1" d="M15.7,71.7c1.4,1.4,2.1,3.3,2.1,6c0,2.5-0.6,4.6-1.8,6.3c-1.2,1.7-3.1,2.5-5.7,2.5c-2.2,0-3.9-0.7-5.1-2.2
				c-1.3-1.5-1.9-3.4-1.9-5.9c0-2.6,0.7-4.8,2-6.3c1.3-1.6,3.1-2.4,5.4-2.4C12.6,69.6,14.3,70.3,15.7,71.7z M14.1,82.1
				c0.6-1.3,1-2.8,1-4.4c0-1.5-0.2-2.7-0.7-3.6c-0.7-1.4-2-2.2-3.8-2.2c-1.6,0-2.8,0.6-3.5,1.9c-0.7,1.2-1.1,2.7-1.1,4.5
				c0,1.7,0.4,3.1,1.1,4.2c0.7,1.1,1.9,1.7,3.5,1.7C12.2,84.1,13.4,83.4,14.1,82.1z"/>
			<path class="st1" d="M24.1,64.3h2.6v3h-2.6V64.3z M24.1,70.2h2.6v15.7h-2.6V70.2z"/>
			<path class="st1" d="M33.8,64.3h2.6v3h-2.6V64.3z M33.8,70.2h2.6v15.7h-2.6V70.2z"/>
			<path class="st1" d="M54.9,71.7c1.4,1.4,2.1,3.3,2.1,6c0,2.5-0.6,4.6-1.8,6.3c-1.2,1.7-3.1,2.5-5.7,2.5c-2.2,0-3.9-0.7-5.1-2.2
				c-1.3-1.5-1.9-3.4-1.9-5.9c0-2.6,0.7-4.8,2-6.3c1.3-1.6,3.1-2.4,5.4-2.4C51.8,69.6,53.6,70.3,54.9,71.7z M53.3,82.1
				c0.6-1.3,1-2.8,1-4.4c0-1.5-0.2-2.7-0.7-3.6c-0.7-1.4-2-2.2-3.8-2.2c-1.6,0-2.8,0.6-3.5,1.9c-0.7,1.2-1.1,2.7-1.1,4.5
				c0,1.7,0.4,3.1,1.1,4.2c0.7,1.1,1.9,1.7,3.5,1.7C51.5,84.1,52.7,83.4,53.3,82.1z"/>
			<path class="st1" d="M63.4,64.3H66v3h-2.6V64.3z M63.4,70.2H66v15.7h-2.6V70.2z"/>
			<path class="st1" d="M73.1,64.3h2.6v3h-2.6V64.3z M73.1,70.2h2.6v15.7h-2.6V70.2z"/>
			<path class="st1" d="M94.2,71.7c1.4,1.4,2.1,3.3,2.1,6c0,2.5-0.6,4.6-1.8,6.3c-1.2,1.7-3.1,2.5-5.7,2.5c-2.2,0-3.9-0.7-5.1-2.2
				c-1.3-1.5-1.9-3.4-1.9-5.9c0-2.6,0.7-4.8,2-6.3c1.3-1.6,3.1-2.4,5.4-2.4C91.1,69.6,92.8,70.3,94.2,71.7z M92.6,82.1
				c0.6-1.3,1-2.8,1-4.4c0-1.5-0.2-2.7-0.7-3.6c-0.7-1.4-2-2.2-3.8-2.2c-1.6,0-2.8,0.6-3.5,1.9c-0.7,1.2-1.1,2.7-1.1,4.5
				c0,1.7,0.4,3.1,1.1,4.2c0.7,1.1,1.9,1.7,3.5,1.7C90.7,84.1,91.9,83.4,92.6,82.1z"/>
			<path class="st1" d="M102.6,64.3h2.6v3h-2.6V64.3z M102.6,70.2h2.6v15.7h-2.6V70.2z"/>
			<path class="st1" d="M112.3,64.3h2.6v3h-2.6V64.3z M112.3,70.2h2.6v15.7h-2.6V70.2z"/>
		</g>
		<g>
			<path class="st2" d="M54.9,41.5c1.4,1.4,2.1,3.3,2.1,6c0,2.5-0.6,4.6-1.8,6.3c-1.2,1.7-3.1,2.5-5.7,2.5c-2.2,0-3.9-0.7-5.1-2.2
				c-1.3-1.5-1.9-3.4-1.9-5.9c0-2.6,0.7-4.8,2-6.3c1.3-1.6,3.1-2.4,5.4-2.4C51.8,39.5,53.6,40.2,54.9,41.5z M53.3,52
				c0.6-1.3,1-2.8,1-4.4c0-1.5-0.2-2.7-0.7-3.6c-0.7-1.4-2-2.2-3.8-2.2c-1.6,0-2.8,0.6-3.5,1.9c-0.7,1.2-1.1,2.7-1.1,4.5
				c0,1.7,0.4,3.1,1.1,4.2c0.7,1.1,1.9,1.7,3.5,1.7C51.5,54,52.7,53.3,53.3,52z"/>
			<path class="st2" d="M63.4,34.1H66v3h-2.6V34.1z M63.4,40H66v15.7h-2.6V40z"/>
			<path class="st2" d="M73.1,34.1h2.6v3h-2.6V34.1z M73.1,40h2.6v15.7h-2.6V40z"/>
		</g>
	</g>
</g>
</svg>
