<!-- Generator: Adobe Illustrator 19.2.1, SVG Export Plug-In  -->
<svg version="1.1"
	 xmlns="http://www.w3.org/2000/svg" xmlns:xlink="http://www.w3.org/1999/xlink" xmlns:a="http://ns.adobe.com/AdobeSVGViewerExtensions/3.0/"
	 x="0px" y="0px" width="90px" height="90px" viewBox="0 0 90 90" style="enable-background:new 0 0 90 90;" xml:space="preserve">
<style type="text/css">
	.st0{fill:#0E2050;}
	.st1{fill:#FFFFFF;}
</style>
<defs>
</defs>
<g>
	<rect class="st0" width="90" height="90"/>
	<g>
		<g>
			<path class="st1" d="M19.7,74.8c0,3.5-2.7,6-6,6c-3.4,0-6-2.5-6-5.8c0-3.5,2.7-6,6-6C17.1,69,19.7,71.5,19.7,74.8L19.7,74.8
				L19.7,74.8z M17.8,74.9c0-3.1-1.5-5.3-4.1-5.3c-2.8,0-4.1,2.6-4.1,5.3c0,3.1,1.5,5.3,4.1,5.3C16.5,80.2,17.8,77.6,17.8,74.9
				L17.8,74.9L17.8,74.9z"/>
			<path class="st1" d="M56.3,74.8c0,3.5-2.7,6-6,6c-3.4,0-6-2.5-6-5.8c0-3.5,2.7-6,6-6C53.7,69,56.3,71.5,56.3,74.8L56.3,74.8
				L56.3,74.8z M54.4,74.9c0-3.1-1.5-5.3-4.1-5.3c-2.8,0-4.1,2.6-4.1,5.3c0,3.1,1.5,5.3,4.1,5.3C53.1,80.2,54.4,77.6,54.4,74.9
				L54.4,74.9L54.4,74.9z"/>
			<path class="st1" d="M61,74.9h1.4c2.2,0,2.6-1.4,2.6-2.7c0-1-0.4-1.9-1.5-2.3c-0.5-0.2-1-0.2-1.7-0.2H61V74.9L61,74.9z
				 M63.6,76.8c-0.7-1-0.9-1.3-1.7-1.3H61v3.9c0,0.3,0.1,0.5,0.5,0.5l1.3,0.3v0.4h-5.1v-0.4l1.2-0.3c0.3-0.1,0.5-0.2,0.5-0.5v-8.9
				c0-0.3-0.1-0.4-0.5-0.5l-1.2-0.3v-0.4h5c1,0,1.8,0.1,2.4,0.3c1.2,0.5,1.9,1.7,1.9,2.8c0,1.4-1,2.6-2.8,3v0.1
				c0.3,0.2,0.5,0.4,1.8,2l1.6,2.1c0.2,0.3,0.5,0.5,0.9,0.6l1.1,0.3v0.4h-2.7c-0.3,0-0.5-0.1-0.8-0.5L63.6,76.8L63.6,76.8z"/>
			<path class="st1" d="M41.2,73.1h0.5v3.8h-0.5l-0.3-1.1c-0.1-0.4-0.3-0.6-0.7-0.6h-2.8v4.2c0,0.3,0.1,0.5,0.5,0.5l1.3,0.3v0.4
				h-5.1v-0.4l1.2-0.3c0.3-0.1,0.5-0.2,0.5-0.5v-8.9c0-0.3-0.1-0.4-0.5-0.5l-1.2-0.3v-0.4h8.6V72h-0.5l-0.5-1.7
				c-0.1-0.4-0.3-0.6-0.7-0.6h-3.6v4.9h2.8c0.4,0,0.6-0.2,0.7-0.6L41.2,73.1L41.2,73.1z"/>
			<path class="st1" d="M70.4,80.6v-0.4l1.2-0.3c0.3-0.1,0.5-0.2,0.5-0.5v-8.9c0-0.3-0.1-0.4-0.5-0.5l-1.2-0.3v-0.4h5.4
				c1.5,0,2.5,0.2,3.4,0.6c2.2,1,3.1,3.1,3.1,5.2c0,2-0.8,3.9-2.7,5c-0.9,0.5-2.1,0.7-3.7,0.7H70.4L70.4,80.6z M73.7,69.7v9.8
				c0,0.4,0.1,0.5,0.5,0.5h1.4c1.3,0,2.3-0.2,3-0.7c1.2-0.9,1.7-2.4,1.7-4.4c0-1.9-0.5-3.8-2.1-4.8c-0.7-0.4-1.5-0.5-2.9-0.5H73.7
				L73.7,69.7z"/>
			<path class="st1" d="M24.2,80.2v0.4h-4v-0.4l1-0.3c0.4-0.1,0.6-0.2,0.9-0.5l3.5-4.4l-3.5-4.6c-0.2-0.3-0.5-0.5-0.9-0.6l-1-0.3
				v-0.4h5v0.4l-1.1,0.2c-0.4,0.1-0.3,0.2-0.1,0.5l2.6,3.7h0.1l2.6-3.7c0.2-0.3,0.3-0.3-0.1-0.4l-1-0.3v-0.4h4v0.4l-1,0.3
				c-0.4,0.1-0.6,0.2-0.9,0.5l-3.3,4.2l3.7,4.9c0.2,0.3,0.5,0.5,0.9,0.6l1,0.3v0.4h-5v-0.4l1.1-0.2c0.4-0.1,0.3-0.2,0.1-0.4L26,75.6
				h-0.1l-2.8,3.9c-0.2,0.3-0.3,0.3,0.1,0.4L24.2,80.2L24.2,80.2z"/>
		</g>
		<path class="st1" d="M12.2,63.8c-0.3,0.3-0.8,0.5-1.4,0.5c-0.6,0-1.1-0.2-1.5-0.5c-0.5-0.5-0.5-1.1-0.5-1.8v-3.2h0.6v3.4
			c0,0.4,0,0.9,0.3,1.2c0.2,0.2,0.6,0.4,1,0.4c0.4,0,0.7-0.1,0.9-0.3C12,63,12,62.6,12,61.7v-2.9h0.6v2.7
			C12.7,62.5,12.7,63.3,12.2,63.8z"/>
		<path class="st1" d="M17.9,64.2l-2.6-4.4l0,4.4h-0.6v-5.4h0.7l2.6,4.5l0-4.5h0.6v5.4H17.9z"/>
		<path class="st1" d="M20.9,64.2v-5.4h0.7v5.4H20.9z"/>
		<path class="st1" d="M25.6,64.2h-0.7l-1.9-5.4h0.7l1.6,4.8l1.6-4.8h0.6L25.6,64.2z"/>
		<path class="st1" d="M28.9,64.2v-5.4h2.9v0.5h-2.3v1.8h2.2v0.5h-2.2v2h2.4v0.6H28.9z"/>
		<path class="st1" d="M36,59.6c-0.3-0.3-0.7-0.3-1.2-0.3h-0.6v2h0.2c0.5,0,1.1,0,1.5-0.3c0.2-0.2,0.3-0.4,0.3-0.7
			C36.3,60,36.2,59.7,36,59.6z M36.6,64.2L36,62.8c-0.4-0.9-0.6-1-1.3-1h-0.4v2.4h-0.6v-5.4h1.2c0.7,0,1.3,0,1.7,0.4
			c0.3,0.3,0.4,0.6,0.4,1.1c0,0.4-0.1,0.7-0.3,0.9c-0.2,0.2-0.5,0.4-0.9,0.4c0.2,0,0.3,0.1,0.5,0.2c0.1,0.1,0.3,0.4,0.4,0.7l0.7,1.6
			H36.6z"/>
		<path class="st1" d="M43.6,64.2v-5.4h0.7v5.4H43.6z"/>
		<path class="st1" d="M48,59.3v4.9h-0.7v-4.9h-1.6v-0.5h3.9v0.5H48z"/>
		<path class="st1" d="M52.7,62.1v2.1h-0.6v-2.1l-1.7-3.3h0.7l1.3,2.5l1.3-2.5l0.7,0L52.7,62.1z"/>
		<path class="st1" d="M60.5,59.2c-1.1,0-1.7,0.9-1.7,2.2c0,1.3,0.8,2.3,1.8,2.3c1.1,0,1.8-1,1.8-2.3C62.3,60.1,61.6,59.2,60.5,59.2
			z M60.5,64.3c-1.4,0-2.4-1.2-2.4-2.8c0-1.7,1-2.8,2.5-2.8c1.4,0,2.4,1.1,2.4,2.8C63,63.1,62,64.3,60.5,64.3z"/>
		<path class="st1" d="M65.4,59.3v1.8h2.1v0.5h-2.1v2.6h-0.6v-5.4h2.9v0.5H65.4z"/>
		<path class="st1" d="M38.6,60.1c0-0.8,0.7-1.4,1.6-1.4c1,0,1.5,0.5,1.5,0.6l-0.3,0.4c-0.1-0.1-0.6-0.4-1.2-0.4
			c-0.7,0-1.1,0.4-1.1,0.9c0,0.2,0.1,0.4,0.3,0.5c0.2,0.2,0.5,0.3,0.7,0.4c0.4,0.2,0.9,0.4,1.2,0.7c0.2,0.2,0.4,0.5,0.4,1
			c0,0.9-0.6,1.6-1.7,1.6c-1,0-1.6-0.5-1.6-0.6l0.3-0.4c0.2,0.1,0.8,0.5,1.3,0.5c0.8,0,1.1-0.4,1.1-1c0-0.2-0.1-0.5-0.3-0.6
			c-0.3-0.2-0.6-0.4-1-0.6c-0.4-0.2-0.7-0.3-1-0.6C38.8,60.8,38.6,60.5,38.6,60.1z"/>
	</g>
	<path class="st1" d="M63.5,22.2c0-0.7-0.2-1.2-0.7-1.5c-0.3-0.2-0.7-0.2-1.3-0.2l-3.8,0v7.7h4.1c1,0,1.5,0.2,1.6,1.1h0.1L63.5,22.2
		z"/>
	<path class="st1" d="M64,22.2c0-0.7,0.2-1.2,0.7-1.5c0.3-0.2,0.7-0.2,1.3-0.2l3.8,0v7.7h-4.2c-1,0-1.5,0.2-1.6,1.1H64L64,22.2z"/>
	<path class="st1" d="M70.6,21c0,0,0,7.6,0,8.1c-0.5,0-5.9,0-5.9,0l-0.1,0.2c-0.1,0.3-0.3,0.5-0.9,0.5c-0.6,0-0.8-0.2-0.9-0.5
		l-0.1-0.2c0,0-5.4,0-5.8,0c0-0.5,0-8.1,0-8.1h-0.5v0.2l-0.5-0.2c-0.1-0.2-0.2-0.3-0.5-0.3c-0.3,0-0.5,0.2-0.5,0.5
		c0,0.3,0.2,0.5,0.5,0.5c0.1,0,0.2,0,0.3-0.1l0.7,0.2v0.7l-0.5-0.1c-0.1-0.2-0.2-0.3-0.4-0.3c-0.3,0-0.5,0.2-0.5,0.5
		c0,0.3,0.2,0.5,0.5,0.5c0.1,0,0.3-0.1,0.3-0.2l0.6,0.1v0.7l-0.5,0c-0.1-0.1-0.2-0.2-0.4-0.2c-0.3,0-0.5,0.2-0.5,0.5
		c0,0.3,0.2,0.5,0.5,0.5c0.2,0,0.3-0.1,0.4-0.2l0.5,0v0.7l-0.5,0c-0.1-0.1-0.2-0.2-0.4-0.2c-0.3,0-0.5,0.2-0.5,0.5
		c0,0.3,0.2,0.5,0.5,0.5c0.2,0,0.3-0.1,0.4-0.2l0.5,0v0.7l-0.6,0.1c-0.1-0.1-0.2-0.2-0.4-0.2c-0.3,0-0.5,0.2-0.5,0.5
		c0,0.3,0.2,0.5,0.5,0.5c0.2,0,0.4-0.1,0.4-0.3l0.5-0.1v0.7l-0.6,0.2c-0.1-0.1-0.2-0.1-0.3-0.1c-0.3,0-0.5,0.2-0.5,0.5
		c0,0.3,0.2,0.5,0.5,0.5c0.2,0,0.4-0.1,0.5-0.3l0.5-0.1v0.6l-0.7,0.3c-0.1-0.1-0.2-0.1-0.3-0.1c-0.3,0-0.5,0.2-0.5,0.5
		c0,0.3,0.2,0.5,0.5,0.5c0.2,0,0.4-0.2,0.5-0.4l0.5-0.2v0.6c0,0,5.8,0,6.1,0c0.2,0.4,0.7,0.7,1.3,0.7c0.6,0,1.1-0.2,1.3-0.7
		c0.3,0,6.1,0,6.1,0V21H70.6z"/>
	<g>
		<ellipse class="st1" cx="59.8" cy="18.7" rx="2.2" ry="0.4"/>
		<path class="st1" d="M62.8,15.6l-1.3,0.9l0,0.1l0.3,0.1c0.1,0,0.1,0.1,0,0.1l-0.8,0.7l-0.1,0l-0.6-0.8c0-0.1,0-0.1,0-0.1l0.4-0.1
			v-0.1l-1-1.4h-0.2l-1,1.4v0.1l0.4,0.1c0.1,0,0.1,0.1,0,0.1l-0.6,0.8l-0.1,0l-0.7-0.7c0,0,0-0.1,0-0.1l0.3-0.1l0-0.1l-1.3-0.9
			l-0.1,0l0.8,2.4c0.4-0.2,1.3-0.3,2.4-0.3c1.1,0,2,0.1,2.4,0.3l0.8-2.4L62.8,15.6z"/>
	</g>
	<g>
		<ellipse class="st1" cx="63.7" cy="34.7" rx="2.2" ry="0.4"/>
		<path class="st1" d="M66.8,31.7l-1.3,0.9l0,0.1l0.3,0.1c0.1,0,0.1,0.1,0,0.1L65,33.6l-0.1,0l-0.6-0.8c0-0.1,0-0.1,0-0.1l0.4-0.1
			v-0.1l-1-1.4h-0.2l-1,1.4v0.1l0.4,0.1c0.1,0,0.1,0.1,0,0.1l-0.6,0.8l-0.1,0l-0.8-0.7c0,0,0-0.1,0-0.1l0.3-0.1l0-0.1l-1.3-0.9
			l-0.1,0l0.8,2.4c0.4-0.2,1.3-0.3,2.4-0.3c1.1,0,2,0.1,2.4,0.3l0.8-2.4L66.8,31.7z"/>
	</g>
	<g>
		<ellipse class="st1" cx="67.7" cy="18.7" rx="2.2" ry="0.4"/>
		<path class="st1" d="M70.8,15.6l-1.3,0.9l0,0.1l0.3,0.1c0.1,0,0.1,0.1,0,0.1L69,17.5l-0.1,0l-0.6-0.8c0-0.1,0-0.1,0-0.1l0.4-0.1
			v-0.1l-1-1.4h-0.2l-1,1.4v0.1l0.4,0.1c0.1,0,0.1,0.1,0,0.1l-0.6,0.8l-0.1,0l-0.7-0.7c0,0,0-0.1,0-0.1l0.3-0.1l0-0.1l-1.3-0.9
			l-0.1,0l0.8,2.4c0.4-0.2,1.3-0.3,2.4-0.3c1.1,0,2,0.1,2.4,0.3l0.8-2.4L70.8,15.6z"/>
	</g>
	<g>
		<path class="st0" d="M58.7,21.6c0.2,0,0.4,0,0.5,0.2c0.1,0.1,0.1,0.2,0.1,0.3c0,0.4-0.3,0.6-0.7,0.6h-0.4v-0.1
			c0.1,0,0.1,0,0.1-0.2v-0.6c0-0.2,0-0.2-0.1-0.2v-0.1H58.7z M58.6,22.5c0,0.1,0,0.2,0.1,0.2c0.1,0,0.3-0.2,0.3-0.5
			c0-0.4-0.2-0.5-0.3-0.5c0,0-0.1,0-0.1,0c0,0,0,0,0,0.1V22.5z"/>
		<path class="st0" d="M60.6,22.2c0,0.4-0.2,0.6-0.6,0.6c-0.3,0-0.6-0.2-0.6-0.6c0-0.3,0.2-0.6,0.6-0.6
			C60.4,21.6,60.6,21.8,60.6,22.2z M59.8,22.1c0,0.3,0.1,0.5,0.3,0.5c0.1,0,0.2-0.1,0.2-0.4c0-0.3-0.1-0.5-0.3-0.5
			C59.9,21.7,59.8,21.8,59.8,22.1z"/>
		<path class="st0" d="M62.1,21.6L62.1,21.6C62,21.7,62,21.7,62,21.9l0,0.6c0,0.2,0,0.2,0.1,0.2v0.1h-0.5v-0.1c0.1,0,0.1,0,0.1-0.2
			l0-0.6h0l-0.3,0.8h-0.1L61,21.9h0l0,0.4c0,0.1,0,0.2,0,0.3c0,0.1,0,0.1,0.2,0.1v0.1h-0.4v-0.1c0.1,0,0.1,0,0.1-0.1
			c0-0.1,0-0.1,0-0.3l0-0.3c0-0.2,0-0.2-0.1-0.2v-0.1h0.4l0.3,0.7l0.3-0.7H62.1z"/>
		<path class="st0" d="M62.6,22.5c0,0.2,0,0.2,0.1,0.2v0.1h-0.5v-0.1c0.1,0,0.1,0,0.1-0.2v-0.6c0-0.2,0-0.2-0.1-0.2v-0.1h0.5v0.1
			c-0.1,0-0.1,0-0.1,0.2V22.5z"/>
	</g>
	<g>
		<path class="st0" d="M59.9,24.8h-0.1L59.2,24h0v0.3c0,0.2,0,0.3,0,0.3c0,0.1,0.1,0.1,0.2,0.1v0.1h-0.4v-0.1c0.1,0,0.1,0,0.1-0.1
			c0-0.1,0-0.1,0-0.3V24c0-0.1,0-0.1,0-0.2c0,0-0.1,0-0.1-0.1v-0.1h0.4l0.6,0.7h0v-0.2c0-0.2,0-0.3,0-0.3c0-0.1-0.1-0.1-0.2-0.1
			v-0.1h0.4v0.1c-0.1,0-0.1,0-0.1,0.1c0,0.1,0,0.1,0,0.3V24.8z"/>
		<path class="st0" d="M60.6,24.8c-0.1-0.3-0.3-0.7-0.3-0.9c-0.1-0.1-0.1-0.2-0.2-0.2v-0.1h0.5v0.1l-0.1,0c-0.1,0-0.1,0,0,0.1
			c0,0.1,0.2,0.4,0.2,0.6c0.1-0.1,0.2-0.5,0.2-0.5c0-0.1,0-0.1-0.1-0.1l-0.1,0v-0.1h0.4v0.1c-0.1,0-0.1,0-0.2,0.2
			c0,0-0.2,0.5-0.3,0.9H60.6z"/>
		<path class="st0" d="M61.4,24.4c0,0.1,0.1,0.3,0.3,0.3c0.1,0,0.2-0.1,0.2-0.2c0-0.1-0.1-0.2-0.2-0.2l0,0c-0.1-0.1-0.3-0.2-0.3-0.3
			c0-0.2,0.1-0.3,0.4-0.3c0.1,0,0.1,0,0.2,0c0,0,0.1,0,0.1,0c0,0.1,0,0.1,0,0.3l-0.1,0c0-0.1-0.1-0.2-0.2-0.2
			c-0.1,0-0.1,0.1-0.1,0.1c0,0.1,0.1,0.1,0.2,0.2l0,0c0.2,0.1,0.3,0.2,0.3,0.4c0,0.2-0.2,0.4-0.4,0.4c-0.1,0-0.1,0-0.2,0
			c-0.1,0-0.1,0-0.1,0C61.3,24.6,61.3,24.5,61.4,24.4L61.4,24.4z"/>
	</g>
	<g>
		<path class="st0" d="M59.2,26.5c0,0.2,0,0.2,0.1,0.2v0.1h-0.5v-0.1c0.1,0,0.1,0,0.1-0.2v-0.6c0-0.2,0-0.2-0.1-0.2v-0.1h0.5v0.1
			c-0.1,0-0.1,0-0.1,0.2V26.5z"/>
		<path class="st0" d="M59.8,26.5c0,0.1,0,0.1,0,0.1c0,0,0.1,0,0.1,0c0.1,0,0.1,0,0.2,0c0,0,0.1-0.1,0.1-0.2l0.1,0
			c0,0.1,0,0.2-0.1,0.3h-0.8v-0.1c0.1,0,0.1,0,0.1-0.2v-0.6c0-0.2,0-0.2-0.1-0.2v-0.1H60v0.1c-0.1,0-0.1,0-0.1,0.2V26.5z"/>
		<path class="st0" d="M60.8,26.5c0,0.1,0,0.1,0,0.1c0,0,0.1,0,0.1,0c0.1,0,0.1,0,0.2,0c0,0,0.1-0.1,0.1-0.2l0.1,0
			c0,0.1,0,0.2-0.1,0.3h-0.8v-0.1c0.1,0,0.1,0,0.1-0.2v-0.6c0-0.2,0-0.2-0.1-0.2v-0.1h0.5v0.1c-0.1,0-0.1,0-0.1,0.2V26.5z"/>
		<path class="st0" d="M61.6,26.8c-0.1-0.3-0.3-0.7-0.3-0.9c-0.1-0.1-0.1-0.2-0.2-0.2v-0.1h0.5v0.1l-0.1,0c-0.1,0-0.1,0,0,0.1
			c0,0.1,0.2,0.4,0.2,0.6c0.1-0.1,0.2-0.5,0.2-0.5c0-0.1,0-0.1-0.1-0.1l-0.1,0v-0.1h0.4v0.1c-0.1,0-0.1,0-0.2,0.2
			c0,0-0.2,0.5-0.3,0.9H61.6z"/>
	</g>
	<g>
		<path class="st0" d="M66.1,21.6L66.1,21.6C66,21.7,66,21.7,66,21.9l0,0.6c0,0.2,0,0.2,0.1,0.2v0.1h-0.5v-0.1c0.1,0,0.1,0,0.1-0.2
			l0-0.6h0l-0.3,0.8h-0.1L65,21.9h0l0,0.4c0,0.1,0,0.2,0,0.3c0,0.1,0,0.1,0.2,0.1v0.1h-0.4v-0.1c0.1,0,0.1,0,0.1-0.1
			c0-0.1,0-0.1,0-0.3l0-0.3c0-0.2,0-0.2-0.1-0.2v-0.1h0.4l0.3,0.7l0.3-0.7H66.1z"/>
		<path class="st0" d="M66.7,22.5c0,0.2,0,0.2,0.1,0.2v0.1h-0.5v-0.1c0.1,0,0.1,0,0.1-0.2v-0.6c0-0.2,0-0.2-0.1-0.2v-0.1h0.5v0.1
			c-0.1,0-0.1,0-0.1,0.2V22.5z"/>
		<path class="st0" d="M67.9,22.7h-0.1l-0.6-0.8h0v0.3c0,0.2,0,0.3,0,0.3c0,0.1,0.1,0.1,0.2,0.1v0.1h-0.4v-0.1c0.1,0,0.1,0,0.1-0.1
			c0-0.1,0-0.1,0-0.3v-0.3c0-0.1,0-0.1,0-0.2c0,0-0.1,0-0.1-0.1v-0.1h0.4l0.6,0.7h0v-0.2c0-0.2,0-0.3,0-0.3c0-0.1-0.1-0.1-0.2-0.1
			v-0.1h0.4v0.1c-0.1,0-0.1,0-0.1,0.1c0,0.1,0,0.1,0,0.3V22.7z"/>
		<path class="st0" d="M68.6,22.7L68.6,22.7C68.7,22.6,68.7,22.6,68.6,22.7l0-0.3h-0.3l-0.1,0.2c0,0.1,0,0.1,0.1,0.1l0,0v0.1H68
			v-0.1c0.1,0,0.1,0,0.2-0.2l0.3-0.9l0.1,0l0.1,0.3c0.1,0.2,0.1,0.4,0.2,0.6c0.1,0.1,0.1,0.2,0.2,0.2v0.1L68.6,22.7L68.6,22.7z
			 M68.4,22.3h0.2L68.5,22h0L68.4,22.3z"/>
	</g>
	<g>
		<path class="st0" d="M66.1,24.5c0,0.2,0,0.2,0.2,0.2v0.1h-0.6v-0.1c0.1,0,0.1,0,0.1-0.2v-0.7h0c-0.1,0-0.2,0-0.2,0.1
			c0,0,0,0.1-0.1,0.2h-0.1c0-0.1,0-0.3,0-0.3h0.1c0,0,0,0,0.1,0h0.7c0,0,0.1,0,0.1,0h0.1c0,0.1,0,0.2,0,0.3l-0.1,0
			c0-0.1,0-0.1-0.1-0.2c0,0-0.1,0-0.2,0h0V24.5z"/>
		<path class="st0" d="M67,24.5c0,0.2,0,0.2,0.1,0.2v0.1h-0.5v-0.1c0.1,0,0.1,0,0.1-0.2v-0.6c0-0.2,0-0.2-0.1-0.2v-0.1h0.5v0.1
			c-0.1,0-0.1,0-0.1,0.2V24.5z"/>
		<path class="st0" d="M68.4,24.2c0,0.4-0.2,0.6-0.6,0.6c-0.3,0-0.6-0.2-0.6-0.6c0-0.3,0.2-0.6,0.6-0.6
			C68.2,23.6,68.4,23.9,68.4,24.2z M67.6,24.2c0,0.3,0.1,0.5,0.3,0.5c0.1,0,0.2-0.1,0.2-0.4c0-0.3-0.1-0.5-0.3-0.5
			C67.7,23.7,67.6,23.9,67.6,24.2z"/>
	</g>
	<g>
		<path class="st0" d="M66.6,25.7L66.6,25.7c-0.1,0.1-0.1,0.1-0.1,0.3l0,0.6c0,0.2,0,0.2,0.1,0.2v0.1h-0.5v-0.1c0.1,0,0.1,0,0.1-0.2
			l0-0.6h0l-0.3,0.8h-0.1L65.5,26h0l0,0.4c0,0.1,0,0.2,0,0.3c0,0.1,0,0.1,0.2,0.1v0.1h-0.4v-0.1c0.1,0,0.1,0,0.1-0.1
			c0-0.1,0-0.1,0-0.3l0-0.3c0-0.2,0-0.2-0.1-0.2v-0.1h0.4l0.3,0.7l0.3-0.7H66.6z"/>
		<path class="st0" d="M66.9,25.9c0-0.2,0-0.2-0.1-0.2v-0.1h0.8c0,0,0,0.2,0,0.3l-0.1,0c0-0.1,0-0.1-0.1-0.2c0,0-0.1,0-0.2,0h0
			c-0.1,0-0.1,0-0.1,0.1v0.3h0.1c0.1,0,0.2,0,0.2-0.1h0.1v0.4h-0.1c0-0.1,0-0.2-0.2-0.2h-0.1v0.3c0,0.1,0,0.1,0,0.1c0,0,0.1,0,0.1,0
			c0.1,0,0.1,0,0.2-0.1c0,0,0.1-0.1,0.1-0.2l0.1,0c0,0.1,0,0.3-0.1,0.3h-0.9v-0.1c0.1,0,0.1,0,0.1-0.2V25.9z"/>
		<path class="st0" d="M68.2,26.7L68.2,26.7C68.3,26.7,68.3,26.7,68.2,26.7l0-0.3H68l-0.1,0.2c0,0.1,0,0.1,0.1,0.1l0,0v0.1h-0.4
			v-0.1c0.1,0,0.1,0,0.2-0.2l0.3-0.9l0.1,0l0.1,0.3c0.1,0.2,0.1,0.4,0.2,0.6c0.1,0.1,0.1,0.2,0.2,0.2v0.1L68.2,26.7L68.2,26.7z
			 M68,26.3h0.2L68.1,26h0L68,26.3z"/>
	</g>
	<circle class="st1" cx="61.8" cy="40.3" r="0.4"/>
	<circle class="st1" cx="66.3" cy="41.1" r="0.4"/>
	<path class="st1" d="M49.6,16.3L49.6,16.3L49.6,16.3z"/>
	<path class="st1" d="M68.1,8.3L68.1,8.3L68.1,8.3z"/>
	<path class="st1" d="M75.2,17.1L75.2,17.1L75.2,17.1z"/>
	<path class="st1" d="M78.6,31.4L78.6,31.4L78.6,31.4z"/>
	<circle class="st1" cx="63.7" cy="9.2" r="0.4"/>
	
		<ellipse transform="matrix(4.237007e-02 -0.9991 0.9991 4.237007e-02 57.7784 86.9054)" class="st1" cx="74.2" cy="13.3" rx="0.4" ry="0.4"/>
	<g>
		<path class="st1" d="M52.5,32.3c0.2,0.2,0.3,0.5,0.3,0.8c0,0.3-0.1,0.6-0.7,0.9l-1.6,1.1l-0.3-0.4c0,0,1.6-1.2,1.7-1.2
			c0.3-0.2,0.4-0.3,0.4-0.6c0-0.1-0.1-0.3-0.2-0.4c-0.2-0.2-0.4-0.3-0.5-0.3c-0.2,0-0.3,0.1-0.7,0.3l-1.5,1l-0.3-0.4l1.4-1
			c0.4-0.3,0.7-0.5,1-0.5C52,31.7,52.4,32,52.5,32.3z"/>
	</g>
	<g>
		<path class="st1" d="M47.5,29.2l3-1.1l0.2,0.5l-1.7,2.1l2.2-0.9l0.2,0.4l-3,1.2l-0.2-0.5l1.7-2.1l-2.2,0.8L47.5,29.2z"/>
	</g>
	<g>
		<path class="st1" d="M47,26.7l3.2-0.5l0.1,0.5l-3.2,0.5L47,26.7z"/>
	</g>
	<g>
		<path class="st1" d="M46.9,22.9l0-0.5l3.2,1.3l0,0.5l-3.3,1l0-0.5l2.6-0.7L46.9,22.9z"/>
	</g>
	<path class="st1" d="M49.8,15.7c-0.5,0-0.7,0.3-1,0.8l-0.4,0.7l2.8,1.5l0.2-0.4l-1.2-0.6l0.1-0.1c0.2-0.4,0.3-0.4,0.8-0.4l0.9,0.1
		l0.3-0.5l-1.1-0.1c-0.2,0-0.4,0-0.5,0c0,0-0.1,0-0.2,0.1c0-0.1,0-0.1,0-0.2c0-0.1,0-0.2,0-0.3c-0.1-0.2-0.2-0.3-0.4-0.5
		C50.1,15.8,50,15.7,49.8,15.7z M49.2,16.7c0.2-0.3,0.3-0.5,0.5-0.5c0.1,0,0.2,0,0.3,0.1c0.1,0.1,0.2,0.2,0.2,0.3c0,0,0,0.1,0,0.1
		c0,0.2-0.1,0.4-0.2,0.6L50,17.5L49.1,17L49.2,16.7z"/>
	<g>
		<path class="st1" d="M53.3,11.2l0.4-0.3l1.9,2.5l-0.4,0.3L53.3,11.2z"/>
	</g>
	<g>
		<path class="st1" d="M55.1,10l2.1-1.1l0.2,0.4l-0.8,0.4l1.3,2.5l-0.5,0.2l-1.3-2.5l-0.8,0.4L55.1,10z"/>
	</g>
	<g>
		<path class="st1" d="M60.2,7.9l0.5-0.2l-0.4,2.1l0.4,1.2l-0.5,0.1l-0.3-1.2l-1.5-1.6l0.5-0.2L60,9.5L60.2,7.9z"/>
	</g>
	<g>
		<path class="st1" d="M70,12.3l1.6-2.8l1.5,0.9L73,10.8l-1.1-0.6l-0.5,0.8l1,0.6l-0.2,0.4l-1-0.6l-0.7,1.3L70,12.3z"/>
	</g>
	<g>
		<path class="st1" d="M78.3,19.4l1.2-1.4l0.2,0.6l-0.9,1l1.3,0.3l0.2,0.5L78.4,20l-1.3,1.5L77,20.9l0.9-1.1l-1.4-0.3L76.4,19
			L78.3,19.4z"/>
	</g>
	<g>
		<path class="st1" d="M77.4,22.6l3.2-0.3l0.1,1.8l-0.4,0l-0.1-1.3l-0.9,0.1l0.1,1.2l-0.4,0L78.8,23l-1.4,0.1L77.4,22.6z"/>
	</g>
	<path class="st1" d="M78.8,25.4c-0.4,0-0.7,0.1-1,0.3c-0.5,0.4-0.6,0.9-0.6,1.1c0,1.1,1,1.5,1.8,1.5c0.4,0,0.7-0.1,1-0.3
		c0.5-0.4,0.6-1,0.6-1.2C80.5,26,79.7,25.4,78.8,25.4z M79,27.9c-0.6,0-1.4-0.3-1.4-1c0-0.2,0.1-0.5,0.4-0.7
		c0.2-0.1,0.4-0.2,0.7-0.2c0.3,0,0.9,0.1,1.2,0.5c0.1,0.1,0.2,0.3,0.2,0.5c0,0.2-0.1,0.5-0.4,0.7C79.5,27.8,79.3,27.9,79,27.9z"/>
	<path class="st1" d="M76.9,14.8c-0.3,0-0.7,0.1-1,0.3c-0.6,0.4-0.8,1-0.8,1.4c0,0.3,0.1,0.5,0.2,0.8c0.3,0.5,0.9,0.7,1.2,0.7
		c0.3,0,0.7-0.1,1-0.3c0.4-0.3,0.8-0.7,0.8-1.4c0-0.3-0.1-0.5-0.2-0.8C77.8,15,77.4,14.8,76.9,14.8z M76.4,17.4
		c-0.3,0-0.5-0.1-0.7-0.4c-0.1-0.1-0.1-0.3-0.1-0.5c0-0.4,0.2-0.7,0.6-1c0.3-0.2,0.6-0.3,0.8-0.3c0.3,0,0.6,0.1,0.7,0.4
		c0.1,0.2,0.1,0.3,0.1,0.5c0,0.4-0.2,0.7-0.6,1C76.9,17.3,76.7,17.4,76.4,17.4z"/>
	<path class="st1" d="M68.2,8.2c-0.7,0-1.2,0.4-1.5,1.2c-0.1,0.2-0.1,0.4-0.1,0.5c0,0.3,0.1,0.6,0.2,0.8c0.3,0.5,0.8,0.7,1.3,0.7
		c0.2,0,0.5-0.1,0.7-0.2c0.5-0.3,0.9-1,0.9-1.6c0-0.3-0.1-0.6-0.2-0.8C69.1,8.4,68.7,8.2,68.2,8.2z M68,11c-0.2,0-0.6-0.1-0.8-0.5
		c-0.1-0.2-0.1-0.4-0.1-0.6c0-0.6,0.4-1.4,1.1-1.4c0.4,0,0.9,0.3,0.9,1C69.1,10.1,68.7,11,68,11z"/>
	<path class="st1" d="M50.4,19.8l0.4,0.1l-0.5,1.8l-3.1-0.9l0.5-1.8l0.4,0.1l-0.4,1.3l0.9,0.2l0.3-1.2l0.4,0.1l-0.3,1.2l1,0.3
		L50.4,19.8z"/>
	<g>
		<g>
			<path class="st1" d="M51.2,13.1c0.4-0.5,0.9-0.5,0.9-0.5l0.1,0.4c0,0-0.4,0-0.6,0.3c-0.1,0.1-0.2,0.3-0.2,0.4
				c0,0.1,0,0.2,0.1,0.3c0.2,0.2,0.6,0,0.8-0.1c0.2-0.1,0.4-0.2,0.7-0.2c0.2,0,0.4,0.1,0.6,0.2c0.2,0.2,0.3,0.4,0.3,0.7
				c0,0.3-0.1,0.5-0.3,0.8c-0.4,0.5-1,0.5-1,0.5l-0.1-0.4c0.3-0.1,0.6-0.2,0.7-0.4c0.1-0.1,0.2-0.3,0.2-0.4c0-0.1-0.1-0.2-0.1-0.3
				c-0.1-0.1-0.2-0.1-0.3-0.1c-0.2,0-0.5,0.1-0.7,0.2c-0.4,0.2-0.8,0.3-1.2,0c-0.2-0.2-0.3-0.4-0.3-0.6C50.9,13.6,51,13.3,51.2,13.1
				z"/>
		</g>
	</g>
	<path class="st1" d="M76.5,29.6l1.2,0.5l-0.1,0.1c-0.2,0.4-0.2,0.4-0.7,0.4l-0.9,0l-0.2,0.5l1.1,0c0.2,0,0.4,0,0.5,0
		c0,0,0.1,0,0.1-0.1c0,0,0,0.1,0,0.1c0,0.1,0,0.2,0.1,0.3c0.1,0.3,0.5,0.5,0.8,0.5c0.5,0,0.7-0.3,1-0.9c0,0,0.3-0.7,0.3-0.7
		l-2.9-1.3L76.5,29.6z M78.4,31.5c-0.1,0-0.4-0.1-0.5-0.3c0-0.1,0-0.1,0-0.2c0-0.2,0.1-0.4,0.2-0.5l0.1-0.1l0.9,0.4L78.9,31
		C78.8,31.4,78.6,31.5,78.4,31.5z"/>
	<path class="st1" d="M74.8,32.6c-0.3,0.4-0.6,0.8-0.6,1.3c0,0.4,0.2,0.9,0.7,1.2c0.3,0.2,0.7,0.4,1,0.4c0.4,0,0.8-0.1,1.4-0.8
		l0.5-0.6l-2.5-2L74.8,32.6z M76,35c-0.3,0-0.5-0.1-0.7-0.3c-0.3-0.2-0.5-0.5-0.5-0.9c0-0.3,0.2-0.5,0.4-0.8l0.2-0.3l1.8,1.5
		L77,34.4C76.6,34.8,76.4,35,76,35z"/>
	<path class="st1" d="M82.1,24.5c0-10.1-8.2-18.3-18.4-18.3c-10.1,0-18.4,8.2-18.4,18.3c0,6.1,3,11.7,8,15.1
		c0.5,1.8,2.2,3.2,4.2,3.2c0.5,0,1.1-0.1,1.6-0.3c0.7,0.2,1.4,0.4,2.1,0.5c-0.2,0.6-0.5,1.1-0.8,1.5c0,0,0,0,0,0c0,0,0,0,0,0
		l0.4,0.4C60.9,45,61,45,61.1,45c0.4,0,0.7,0.3,0.7,0.7c0,0.4-0.3,0.7-0.7,0.7c-0.3,0-0.6-0.2-0.8-0.4c0,0-0.1,0.3-0.1,0.7
		c0,1.3,1.4,2.8,3.4,3.5c2-0.6,3.4-2.1,3.4-3.5c0-0.5-0.1-0.7-0.1-0.7c-0.2,0.2-0.4,0.4-0.8,0.4c-0.4,0-0.7-0.3-0.7-0.7
		c0-0.4,0.3-0.7,0.7-0.7c0.1,0,0.3,0,0.4,0.1l0.4-0.4c0,0,0,0,0,0c-0.2-0.5-0.4-1-0.5-1.4c3.3-0.4,6.1-1.8,8.3-4.2l0,0
		C79.5,35.6,82.1,30.3,82.1,24.5z M57.6,42.3c-2.1,0-3.8-1.7-3.8-3.8c0-0.7,0.2-1.3,0.5-1.8c0.2,0.2,0.4,0.4,0.6,0.5
		c-0.2,0.4-0.3,0.8-0.3,1.3c0,1.1,0.6,2.1,1.7,2.7c0.6,0.4,1.3,0.7,2.1,1C58.1,42.3,57.8,42.3,57.6,42.3z M63.7,36.8
		c-0.8,0-1.6-0.1-2.3-0.2c-0.7-1.4-2.2-2.4-3.9-2.4c-0.4,0-0.8,0.1-1.1,0.2c-3.1-2.3-5-6-5-9.9c0-6.8,5.5-12.3,12.3-12.3
		c6.8,0,12.3,5.5,12.3,12.3S70.5,36.8,63.7,36.8z M66.5,37c-0.4,0.5-0.6,1.3-0.7,2c-1.2-0.3-2.2-0.7-3.1-1.1
		c0.2-0.3,0.7-0.6,1.1-0.6C64.7,37.3,65.6,37.2,66.5,37z M62.6,37.3c-0.2,0.1-0.3,0.3-0.4,0.4c-0.5-0.2-1-0.5-1.4-0.7
		C61.3,37.1,62,37.2,62.6,37.3z M57.6,34.8c1.3,0,2.5,0.6,3.1,1.7c-0.6-0.2-1.2-0.4-1.8-0.6l0,0l0,0c-0.4-0.2-0.8-0.3-1.3-0.3
		c-1,0-1.9,0.5-2.5,1.3c-0.2-0.1-0.5-0.3-0.7-0.4C55.1,35.4,56.3,34.8,57.6,34.8z M66.3,44.4c-0.7,0-1.2,0.5-1.2,1.2
		c0,0.7,0.6,1.2,1.2,1.2c0.1,0,0.2,0,0.3,0c-0.1,1-1.3,2.2-2.9,2.7c-1.5-0.5-2.7-1.7-2.9-2.7c0.1,0,0.2,0,0.3,0
		c0.7,0,1.2-0.5,1.2-1.2c0-0.7-0.5-1.2-1.2-1.2c0.2-0.4,0.4-0.8,0.6-1.2c0.8,0.1,1.7,0.2,2.4,0.2c0.6,0,1.2,0,1.8-0.1
		C66.1,43.7,66.2,44.1,66.3,44.4C66.3,44.4,66.3,44.4,66.3,44.4z M64.2,42.9c-2.5,0-5.5-0.8-7.6-2.1c-0.6-0.4-1.4-1.1-1.4-2.3
		c0-0.3,0.1-0.6,0.2-0.9c0.8,0.7,1.6,1.3,2.1,1.5c0.1,0.1,0.2,0.1,0.3,0.1c0.3,0,0.6-0.3,0.6-0.6c0-0.3-0.1-0.5-0.4-0.6
		c-0.4-0.2-1.4-0.6-2.3-1.1c0.5-0.6,1.2-1,2-1c0.4,0,0.7,0.1,1.1,0.2l0.7,0.4c2.1,1.3,7.7,4.7,14.3,2.8C71.1,41.8,68,42.9,64.2,42.9
		z M74.5,38.7c-3,1.1-5.8,1-8.1,0.5c0.1-1.1,0.5-2.2,1.2-2.4c5.2-1.6,9-6.5,9-12.3c0-7.1-5.8-12.8-12.9-12.8
		c-7.1,0-12.9,5.8-12.9,12.8c0,3.9,1.8,7.7,4.9,10.1c-0.7,0.3-1.4,0.8-1.8,1.5c-0.2-0.2-0.5-0.3-0.7-0.5l-0.1,0.1
		c0.1,0.2,0.4,0.4,0.6,0.6c-0.4,0.6-0.6,1.4-0.6,2.2c0,0.1,0,0.2,0,0.4c-4.6-3.4-7.3-8.7-7.3-14.4c0-9.8,8-17.8,17.8-17.8
		s17.8,8,17.8,17.8C81.6,30.1,79,35.3,74.5,38.7z"/>
</g>
</svg>
